<?xml version="1.0" standalone="no"?>
<!DOCTYPE svg PUBLIC "-//W3C//DTD SVG 20010904//EN"
 "http://www.w3.org/TR/2001/REC-SVG-20010904/DTD/svg10.dtd">
<svg version="1.0" xmlns="http://www.w3.org/2000/svg"
 width="340.000000pt" height="100.000000pt" viewBox="0 0 340.000000 100.000000"
 preserveAspectRatio="xMidYMid meet">

<g transform="translate(0.000000,100.000000) scale(0.100000,-0.100000)"
fill="#000000" stroke="none">
<path d="M98 951 l-33 -29 0 -417 0 -417 33 -29 32 -29 1566 0 1566 0 29 29
29 29 0 417 0 417 -29 29 -29 29 -1566 0 -1566 0 -32 -29z m659 -158 c-8 -46
-64 -103 -102 -103 -29 0 -30 6 -9 59 16 41 64 81 98 81 16 0 18 -5 13 -37z
m1033 -48 c0 -69 -3 -85 -15 -85 -12 0 -15 16 -15 85 0 69 3 85 15 85 12 0 15
-16 15 -85z m410 1 l0 -84 -45 2 c-49 1 -65 15 -65 54 0 40 18 62 50 62 25 0
30 4 30 25 0 16 6 25 15 25 12 0 15 -16 15 -84z m580 56 c0 -26 3 -28 30 -24
25 4 31 0 40 -24 14 -35 9 -86 -7 -92 -9 -2 -13 8 -13 30 0 19 -7 43 -15 54
-13 16 -16 17 -25 4 -5 -8 -10 -32 -10 -52 0 -27 -4 -38 -15 -38 -12 0 -15 16
-15 85 0 69 3 85 15 85 10 0 15 -10 15 -28z m-1536 -4 c17 -23 21 -64 10 -93
-9 -22 -57 -45 -94 -45 l-30 0 0 80 0 80 49 0 c40 0 53 -4 65 -22z m1446 -3
c0 -8 7 -15 15 -15 8 0 15 -4 15 -10 0 -5 -7 -10 -15 -10 -10 0 -15 -10 -15
-30 0 -18 6 -33 15 -36 18 -7 20 -34 3 -34 -27 0 -41 20 -48 66 -8 48 1 84 20
84 6 0 10 -7 10 -15z m-1300 -34 c34 -65 -35 -135 -84 -85 -19 18 -21 75 -4
92 20 20 76 15 88 -7z m65 4 c16 -49 18 -50 28 -17 12 40 36 42 44 2 3 -16 9
-30 13 -30 4 0 10 14 14 30 3 18 12 30 21 30 17 0 17 -3 -10 -80 -15 -44 -36
-45 -49 -1 l-10 34 -11 -34 c-17 -48 -37 -43 -57 16 -9 28 -17 53 -17 58 -2
14 30 7 34 -8z m252 4 c19 -17 18 -109 -2 -109 -11 0 -15 12 -15 44 0 25 -4
47 -8 50 -16 10 -31 -10 -34 -48 -2 -22 -9 -41 -15 -44 -10 -3 -13 13 -13 56
l0 59 37 1 c20 1 42 -3 50 -9z m215 -6 c38 -34 7 -103 -46 -103 -27 0 -56 33
-56 64 0 48 64 73 102 39z m126 5 c7 -7 12 -33 12 -59 l0 -47 -39 0 c-22 0
-45 5 -51 13 -18 22 -2 55 31 62 33 6 29 23 -7 23 -13 0 -24 5 -24 10 0 14 64
12 78 -2z m354 -5 c38 -34 7 -103 -46 -103 -27 0 -56 33 -56 64 0 48 64 73
102 39z m146 -47 c2 -44 0 -57 -10 -54 -7 3 -14 20 -16 39 -4 54 -10 63 -27
49 -9 -7 -15 -29 -15 -51 0 -28 -4 -39 -15 -39 -12 0 -15 13 -15 61 l0 60 48
-3 47 -3 3 -59z m430 52 c7 -7 12 -22 12 -35 0 -20 -5 -23 -37 -23 -40 0 -35
-16 7 -22 35 -4 31 -22 -6 -26 -19 -2 -38 3 -48 13 -19 19 -21 76 -4 93 15 15
61 15 76 0z m-2146 -106 c34 -20 44 -43 23 -54 -39 -22 -58 -113 -34 -161 6
-12 24 -33 40 -47 l29 -25 -21 -43 c-12 -24 -37 -60 -55 -79 -32 -34 -36 -35
-81 -28 -56 9 -110 9 -174 0 -43 -6 -47 -5 -77 30 -60 68 -85 131 -89 225 -5
98 11 139 68 178 29 20 42 23 89 17 84 -9 122 -8 160 2 41 12 84 6 122 -15z
m480 -254 c67 -207 64 -188 29 -188 -26 0 -31 5 -46 50 l-17 50 -47 0 -47 0
-15 -47 c-12 -40 -19 -49 -42 -51 -15 -2 -27 1 -27 7 0 5 23 80 50 165 l51
156 32 0 33 0 46 -142z m856 133 c8 -5 12 -17 10 -27 -3 -16 -12 -19 -58 -19
-54 0 -55 0 -55 -30 0 -25 7 -33 41 -50 79 -38 109 -87 83 -137 -21 -42 -51
-58 -107 -58 -66 0 -92 12 -85 40 6 23 5 23 54 9 32 -10 42 -9 64 5 40 26 30
56 -30 88 -60 32 -85 61 -85 97 0 32 24 69 54 81 28 11 97 12 114 1z m142 -55
c0 -19 6 -25 28 -28 19 -2 27 -9 27 -23 0 -14 -8 -21 -27 -23 -27 -3 -28 -5
-28 -66 0 -64 16 -96 40 -81 6 4 10 -4 10 -19 0 -23 -4 -26 -39 -26 -23 0 -44
6 -51 16 -8 8 -15 51 -18 95 -3 58 -8 79 -18 79 -8 0 -14 10 -14 25 0 16 6 25
15 25 8 0 15 9 15 19 0 20 12 29 43 30 12 1 17 -7 17 -23z m-850 -42 c0 -14 2
-14 22 0 31 22 80 20 111 -5 54 -42 55 -151 1 -198 -23 -19 -36 -22 -76 -19
l-48 5 0 -48 c0 -48 -1 -49 -30 -49 l-30 0 0 165 0 165 25 0 c16 0 25 -6 25
-16z m263 4 c3 -10 9 -10 26 0 25 15 75 16 102 2 63 -34 63 -186 1 -219 -28
-15 -95 -14 -110 1 -9 9 -12 -1 -12 -45 0 -54 -1 -57 -24 -57 l-24 0 -4 158
c-2 86 -2 160 0 165 5 12 40 8 45 -5z m859 -17 c31 -27 33 -34 33 -91 0 -57
-2 -64 -33 -91 -26 -24 -41 -29 -80 -29 -50 1 -67 10 -95 50 -33 48 -15 139
35 174 38 27 103 21 140 -13z m128 12 c0 -15 1 -15 18 0 29 27 62 22 62 -8 0
-17 -6 -25 -17 -25 -39 0 -53 -29 -53 -112 l0 -78 -30 0 -30 0 0 120 0 120 25
0 c17 0 25 -6 25 -17z m272 -8 c27 -26 42 -74 32 -100 -5 -11 -23 -15 -80 -15
-79 0 -87 -7 -53 -41 18 -18 29 -21 71 -16 47 6 49 5 46 -16 -3 -20 -10 -22
-66 -25 -58 -3 -65 -1 -92 27 -26 25 -30 37 -30 83 1 29 7 64 14 77 30 55 116
69 158 26z"/>
<path d="M2131 746 c-18 -21 -9 -51 14 -51 15 0 20 7 20 29 0 33 -16 44 -34
22z"/>
<path d="M1160 745 c0 -48 3 -55 19 -55 11 0 27 7 35 16 33 32 10 94 -35 94
-16 0 -19 -7 -19 -55z"/>
<path d="M1324 746 c-10 -26 1 -51 21 -51 23 0 32 30 15 50 -16 19 -29 19 -36
1z"/>
<path d="M1860 745 c-16 -19 -3 -55 20 -55 23 0 33 26 20 51 -13 23 -23 24
-40 4z"/>
<path d="M1995 709 c-4 -6 -4 -13 -1 -16 8 -8 36 5 36 17 0 13 -27 13 -35 -1z"/>
<path d="M2340 745 c-16 -19 -3 -55 20 -55 23 0 33 26 20 51 -13 23 -23 24
-40 4z"/>
<path d="M2925 750 c-3 -5 3 -10 15 -10 12 0 18 5 15 10 -3 6 -10 10 -15 10
-5 0 -12 -4 -15 -10z"/>
<path d="M1216 435 c-23 -69 -21 -75 19 -75 19 0 35 1 35 3 0 1 -9 29 -19 61
l-18 59 -17 -48z"/>
<path d="M1499 407 c-20 -10 -25 -21 -27 -61 -5 -79 45 -114 87 -60 48 60 2
151 -60 121z"/>
<path d="M1754 395 c-31 -31 -33 -86 -4 -115 11 -11 27 -20 35 -20 28 0 55 38
55 78 0 68 -45 98 -86 57z"/>
<path d="M2470 400 c-41 -41 -16 -140 35 -140 31 0 55 35 55 82 0 40 -27 78
-55 78 -8 0 -24 -9 -35 -20z"/>
<path d="M2875 398 c-15 -23 -15 -23 31 -26 54 -4 59 -1 44 27 -14 28 -55 27
-75 -1z"/>
</g>
</svg>
