<?xml version="1.0" standalone="no"?>
<!DOCTYPE svg PUBLIC "-//W3C//DTD SVG 20010904//EN"
 "http://www.w3.org/TR/2001/REC-SVG-20010904/DTD/svg10.dtd">
<svg version="1.0" xmlns="http://www.w3.org/2000/svg"
 width="225.000000pt" height="225.000000pt" viewBox="0 0 225.000000 225.000000"
 preserveAspectRatio="xMidYMid meet">

<g transform="translate(0.000000,225.000000) scale(0.100000,-0.100000)"
fill="#000000" stroke="none">
<path d="M1018 1903 c7 -3 16 -2 19 1 4 3 -2 6 -13 5 -11 0 -14 -3 -6 -6z"/>
<path d="M892 1871 c-226 -79 -404 -276 -458 -507 -20 -87 -20 -241 1 -330 58
-251 261 -459 513 -525 99 -26 249 -28 350 -4 84 19 93 31 11 14 -31 -7 -95
-10 -154 -6 -263 13 -491 166 -601 404 -46 98 -64 180 -64 299 0 298 168 546
445 656 92 36 63 36 -43 -1z"/>
<path d="M1393 1842 c23 -25 21 -64 -3 -89 -10 -12 -45 -31 -77 -44 -48 -19
-80 -23 -188 -25 -71 -1 -133 -3 -137 -3 -18 -2 -6 -42 17 -57 22 -14 45 -16
153 -11 163 6 266 41 306 102 25 39 19 65 -24 107 -41 38 -78 54 -47 20z"/>
<path d="M1540 1775 c0 -4 5 -15 11 -27 16 -30 3 -80 -30 -114 -58 -59 -214
-114 -322 -114 -26 0 -46 -7 -59 -20 -25 -25 -25 -35 1 -61 18 -18 28 -20 82
-14 84 9 198 40 257 70 117 59 176 149 140 214 -10 19 -80 76 -80 66z"/>
<path d="M1706 1585 c-49 -139 -199 -232 -428 -266 -97 -14 -296 -6 -382 15
-78 20 -109 9 -104 -36 2 -23 10 -36 28 -45 99 -46 380 -58 553 -22 172 35
307 112 343 196 15 34 17 112 4 153 -7 23 -8 24 -14 5z"/>
<path d="M1796 1355 c-32 -59 -134 -147 -220 -189 -163 -79 -399 -114 -596
-87 -50 7 -102 10 -116 7 -34 -9 -49 -51 -29 -82 18 -28 60 -40 192 -55 322
-36 709 105 778 283 10 28 15 65 13 102 l-3 57 -19 -36z"/>
<path d="M1782 1040 c-53 -47 -175 -111 -266 -139 -80 -25 -231 -51 -293 -51
-72 0 -114 -31 -98 -73 14 -34 57 -40 173 -23 267 39 443 129 508 259 14 27
24 52 22 57 -2 4 -22 -9 -46 -30z"/>
<path d="M1676 790 c-76 -50 -162 -85 -267 -106 -81 -16 -125 -16 -413 -1 -45
2 -62 -16 -53 -55 10 -40 78 -60 223 -65 101 -4 134 -2 205 16 110 28 200 74
271 140 50 45 107 112 96 111 -2 0 -30 -18 -62 -40z"/>
</g>
</svg>
