<?xml version="1.0" standalone="no"?>
<!DOCTYPE svg PUBLIC "-//W3C//DTD SVG 20010904//EN"
 "http://www.w3.org/TR/2001/REC-SVG-20010904/DTD/svg10.dtd">
<svg version="1.0" xmlns="http://www.w3.org/2000/svg"
 width="225.000000pt" height="225.000000pt" viewBox="0 0 225.000000 225.000000"
 preserveAspectRatio="xMidYMid meet">

<g transform="translate(0.000000,225.000000) scale(0.100000,-0.100000)"
fill="#000000" stroke="none">
<path d="M1045 2244 c-199 -27 -294 -53 -420 -117 -317 -159 -533 -445 -602
-796 -22 -115 -21 -310 1 -419 73 -348 285 -629 593 -786 64 -33 203 -86 225
-86 4 0 8 167 8 370 l0 370 -115 0 -115 0 0 175 0 175 115 0 115 0 0 113 c0
188 26 300 93 398 99 149 298 216 557 189 168 -18 150 4 150 -181 l0 -159
-117 0 c-210 -1 -257 -45 -270 -255 l-6 -105 186 0 c103 0 187 -4 187 -8 0 -4
-13 -82 -30 -172 -16 -90 -30 -166 -30 -167 0 -2 -70 -3 -155 -3 l-155 0 0
-385 c0 -212 2 -385 4 -385 31 0 172 36 246 63 322 115 580 383 684 712 38
122 49 198 49 340 0 141 -11 215 -50 340 -121 386 -456 684 -852 759 -82 16
-247 27 -296 20z"/>
</g>
</svg>
