<?xml version="1.0" standalone="no"?>
<!DOCTYPE svg PUBLIC "-//W3C//DTD SVG 20010904//EN"
 "http://www.w3.org/TR/2001/REC-SVG-20010904/DTD/svg10.dtd">
<svg version="1.0" xmlns="http://www.w3.org/2000/svg"
 width="225.000000pt" height="225.000000pt" viewBox="0 0 225.000000 225.000000"
 preserveAspectRatio="xMidYMid meet">

<g transform="translate(0.000000,225.000000) scale(0.100000,-0.100000)"
fill="#000000" stroke="none">
<path d="M0 1125 l0 -1125 1125 0 1125 0 0 1125 0 1125 -1125 0 -1125 0 0
-1125z m720 600 c92 -48 105 -173 25 -244 -47 -41 -95 -49 -153 -25 -62 26
-92 71 -92 138 0 57 21 97 66 127 35 23 113 25 154 4z m842 -397 c62 -26 120
-90 147 -162 20 -53 21 -75 21 -362 l0 -305 -127 3 -128 3 -5 270 c-4 236 -7
274 -23 298 -41 63 -126 73 -192 23 -56 -43 -65 -91 -65 -363 l0 -234 -127 3
-128 3 -3 413 -2 412 125 0 125 0 0 -55 0 -56 31 36 c86 98 225 127 351 73z
m-782 -408 l0 -410 -130 0 -130 0 0 410 0 410 130 0 130 0 0 -410z"/>
</g>
</svg>
