<?xml version="1.0" standalone="no"?>
<!DOCTYPE svg PUBLIC "-//W3C//DTD SVG 20010904//EN"
 "http://www.w3.org/TR/2001/REC-SVG-20010904/DTD/svg10.dtd">
<svg version="1.0" xmlns="http://www.w3.org/2000/svg"
 width="340.000000pt" height="100.000000pt" viewBox="0 0 340.000000 100.000000"
 preserveAspectRatio="xMidYMid meet">

<g transform="translate(0.000000,100.000000) scale(0.100000,-0.100000)"
fill="#000000" stroke="none">
<path d="M98 951 l-33 -29 -3 -404 c-2 -369 -1 -406 15 -438 10 -19 29 -40 43
-47 20 -10 355 -13 1573 -13 1669 0 1589 -2 1617 49 6 13 10 170 10 436 l0
417 -29 29 -29 29 -1566 0 -1566 0 -32 -29z m1073 -158 c12 -38 24 -74 27 -80
2 -8 -4 -13 -17 -13 -14 0 -25 9 -31 25 -6 15 -17 25 -30 25 -13 0 -24 -10
-30 -25 -10 -27 -40 -35 -40 -10 0 8 8 36 18 62 11 26 22 56 25 66 4 10 17 17
31 17 21 0 27 -9 47 -67z m116 20 l28 -48 3 48 c2 33 7 47 18 47 11 0 14 -17
14 -80 0 -98 -13 -104 -65 -28 l-35 53 0 -53 c0 -40 -4 -52 -15 -52 -12 0 -15
16 -15 80 0 72 2 80 19 80 12 0 30 -17 48 -47z m213 27 c50 -50 6 -140 -70
-140 l-40 0 0 80 0 80 45 0 c32 0 51 -6 65 -20z m158 -14 c2 -16 -2 -32 -8
-36 -8 -5 -6 -17 9 -40 11 -19 18 -37 15 -42 -11 -18 -36 -6 -45 22 -14 38
-37 39 -41 3 -2 -17 -10 -29 -20 -31 -16 -3 -18 6 -18 78 l0 81 53 -3 c49 -3
52 -5 55 -32z m164 17 c24 -29 29 -54 17 -90 -19 -59 -91 -74 -128 -27 -45 57
-11 134 58 134 24 0 44 -7 53 -17z m88 -64 c0 -68 -2 -80 -16 -77 -12 2 -16
19 -17 81 -2 67 0 77 16 77 15 0 17 -11 17 -81z m150 61 c29 -29 27 -84 -5
-115 -18 -18 -35 -25 -65 -25 l-40 0 0 80 0 80 45 0 c32 0 51 -6 65 -20z m221
-47 c12 -38 24 -74 27 -80 2 -8 -4 -13 -17 -13 -14 0 -25 9 -31 25 -6 15 -17
25 -30 25 -13 0 -24 -10 -30 -25 -10 -25 -40 -35 -40 -13 0 7 12 43 26 80 22
57 29 68 49 68 20 0 27 -10 46 -67z m153 51 c29 -29 10 -68 -40 -80 -18 -5
-24 -13 -24 -35 0 -22 -5 -29 -20 -29 -18 0 -20 7 -20 80 l0 80 44 0 c27 0 51
-6 60 -16z m146 0 c21 -25 1 -67 -38 -79 -26 -7 -32 -14 -32 -37 0 -21 -5 -28
-20 -28 -18 0 -20 7 -20 80 l0 80 49 0 c32 0 53 -5 61 -16z m219 -10 c25 -31
26 -55 6 -93 -37 -73 -140 -46 -140 37 0 54 26 82 76 82 29 0 42 -6 58 -26z
m113 -17 l28 -42 0 43 c0 36 3 42 20 42 19 0 21 -5 18 -77 -2 -49 -7 -78 -15
-80 -7 -3 -27 17 -45 42 l-33 47 -3 -46 c-2 -32 -7 -46 -18 -46 -11 0 -14 17
-14 80 0 70 2 80 18 80 9 0 29 -19 44 -43z m-2399 -133 c111 -64 230 -133 264
-153 35 -20 63 -41 63 -46 0 -8 -93 -67 -133 -84 -5 -2 -29 16 -53 40 l-44 43
-158 -157 c-86 -86 -161 -157 -165 -157 -4 0 -7 113 -7 250 l0 250 67 0 67 0
-40 43 c-56 59 -78 87 -70 87 3 0 98 -52 209 -116z m1639 -234 c-3 -130 -1
-150 12 -150 9 0 16 -4 16 -10 0 -5 -19 -10 -42 -10 l-43 0 3 150 c3 133 2
150 -13 150 -9 0 -13 5 -10 10 3 6 23 10 43 10 l37 0 -3 -150z m-837 126 c41
-17 44 -29 13 -50 -21 -15 -23 -15 -30 3 -10 27 -39 41 -87 41 -111 0 -157
-155 -72 -241 33 -32 99 -54 135 -45 22 5 26 12 26 41 0 33 -2 35 -32 35 -25
0 -29 3 -18 10 8 5 38 10 65 10 l50 0 -3 -49 c-4 -49 -4 -49 -47 -60 -60 -15
-139 -14 -179 3 -48 20 -86 74 -92 132 -7 66 25 130 81 161 48 27 137 31 190
9z m1475 -151 c0 -148 -1 -155 -20 -155 -19 0 -20 7 -20 155 0 148 1 155 20
155 19 0 20 -7 20 -155z m-1209 34 c53 -57 35 -145 -38 -175 -76 -32 -153 18
-153 99 1 68 43 106 118 107 36 0 49 -5 73 -31z m240 2 c57 -57 32 -155 -46
-181 -69 -23 -145 27 -145 96 0 71 44 113 118 114 35 0 49 -6 73 -29z m249 19
c0 -5 -10 -10 -22 -10 -17 0 -19 -3 -10 -12 20 -20 15 -83 -8 -103 -27 -24
-25 -36 10 -70 75 -72 -6 -163 -125 -141 -42 8 -70 45 -61 81 7 26 51 55 86
55 15 0 20 6 20 25 0 20 -5 25 -24 25 -27 0 -66 42 -66 71 0 25 46 77 73 82
45 9 127 7 127 -3z m268 -6 c12 -8 22 -21 22 -29 0 -15 -81 -55 -111 -55 -28
0 -23 -28 11 -62 26 -26 36 -30 66 -25 30 5 34 4 24 -8 -17 -20 -70 -28 -103
-16 -53 20 -82 102 -56 154 28 54 100 74 147 41z m212 6 c0 -7 6 -7 19 0 36
19 90 12 116 -15 20 -19 25 -34 25 -75 0 -92 -37 -130 -116 -117 l-34 6 0 -50
c0 -42 -3 -49 -20 -49 -19 0 -20 7 -20 155 0 131 2 155 15 155 8 0 15 -5 15
-10z m434 -12 c22 -31 23 -198 2 -198 -8 0 -16 5 -18 11 -3 9 -9 9 -25 0 -37
-19 -90 -14 -107 11 -38 54 2 108 80 108 36 0 44 3 44 19 0 31 -26 44 -70 37
-31 -5 -40 -3 -40 8 0 19 15 24 72 25 38 1 50 -3 62 -21z m101 -67 l32 -84 28
82 c25 77 41 98 64 89 13 -4 -95 -280 -116 -295 -24 -19 -83 -17 -83 2 0 10
10 15 30 15 25 0 33 6 44 31 12 29 11 38 -11 93 -14 34 -34 83 -44 109 l-19
48 21 -3 c17 -2 29 -21 54 -87z"/>
<path d="M1110 790 c0 -11 5 -20 10 -20 6 0 10 9 10 20 0 11 -4 20 -10 20 -5
0 -10 -9 -10 -20z"/>
<path d="M1420 780 c0 -41 3 -50 18 -50 25 0 42 20 42 50 0 30 -17 50 -42 50
-15 0 -18 -9 -18 -50z"/>
<path d="M1580 823 c0 -4 4 -14 9 -22 11 -17 45 -7 39 12 -5 13 -48 23 -48 10z"/>
<path d="M1742 818 c-26 -26 -6 -88 29 -88 11 0 24 11 31 25 22 49 -25 98 -60
63z"/>
<path d="M1980 811 c0 -40 13 -81 26 -81 25 0 46 44 35 74 -13 32 -61 38 -61
7z"/>
<path d="M2227 813 c-12 -12 -7 -43 7 -43 9 0 12 8 8 25 -5 27 -6 28 -15 18z"/>
<path d="M2370 809 c0 -14 5 -19 17 -17 26 5 29 38 4 38 -15 0 -21 -6 -21 -21z"/>
<path d="M2510 809 c0 -14 5 -19 17 -17 26 5 29 38 4 38 -15 0 -21 -6 -21 -21z"/>
<path d="M2712 818 c-28 -28 -3 -93 33 -86 25 4 43 53 29 76 -14 21 -45 27
-62 10z"/>
<path d="M1449 454 c-30 -37 -2 -145 41 -159 13 -4 31 0 47 10 23 16 25 22 21
71 -3 33 -12 62 -23 74 -22 24 -67 26 -86 4z"/>
<path d="M1692 458 c-7 -7 -12 -34 -12 -60 0 -38 6 -54 29 -80 26 -29 31 -31
55 -20 15 6 30 22 35 36 12 29 -1 91 -25 117 -19 21 -64 25 -82 7z"/>
<path d="M1938 459 c-25 -14 -22 -63 5 -95 20 -23 26 -25 45 -15 28 15 29 59
1 95 -23 29 -26 30 -51 15z"/>
<path d="M1945 263 c-30 -8 -45 -23 -45 -48 0 -39 50 -61 101 -43 38 13 41 58
4 82 -25 17 -27 17 -60 9z"/>
<path d="M2236 448 c-18 -25 -21 -48 -7 -48 5 0 25 7 45 15 44 19 46 48 4 53
-18 2 -31 -4 -42 -20z"/>
<path d="M2576 444 c-10 -10 -16 -33 -16 -64 0 -54 18 -80 54 -80 35 0 56 30
56 82 0 68 -53 103 -94 62z"/>
<path d="M2910 373 c-67 -13 -68 -73 -1 -73 24 0 51 31 51 58 0 22 -4 23 -50
15z"/>
</g>
</svg>
